<svg width="96" height="96" viewBox="0 0 96 96" fill="none" xmlns="http://www.w3.org/2000/svg">
<path d="M54.5504 17.1839C59.0894 26.5475 63.5759 35.8317 68.1088 45.0932C68.6442 46.187 68.5396 46.8024 67.499 47.5476C63.2142 50.6163 59.0043 53.7894 54.7644 56.9207C54.3997 57.1901 54.0165 57.4344 53.4386 57.8293C51.7909 54.7029 50.1759 51.6383 48.4689 48.3994C47.8819 49.3354 47.2724 50.1891 46.7856 51.1078C45.7203 53.1187 44.7041 55.156 43.6958 57.1964C43.3308 57.9349 42.9255 57.8989 42.3325 57.4579C37.7762 54.0691 33.2276 50.669 28.6251 47.3438C27.802 46.7491 27.7097 46.3195 28.1395 45.4424C34.2551 32.9623 40.3347 20.4645 46.4307 7.97479C46.9893 6.8302 47.6012 5.71157 48.3683 4.23431C50.519 8.73752 52.5154 12.9177 54.5504 17.1839Z" fill="white"/>
<path d="M61.8616 54.8612C68.2467 50.122 74.5587 45.4353 80.8707 40.7487C80.9796 40.8407 81.0885 40.9327 81.1975 41.0247C70.2812 55.8959 59.3649 70.7671 48.3255 85.806C37.2335 70.8388 26.1967 55.9461 15.1599 41.0534C15.2552 40.9429 15.3504 40.8323 15.4457 40.7217C15.7974 40.9338 16.1701 41.1179 16.4976 41.3624C22.2481 45.6548 27.9904 49.9581 33.74 54.2518C38.1805 57.5679 42.6403 60.8582 47.0617 64.1994C47.8236 64.7752 48.3271 64.9436 49.2002 64.277C53.3565 61.1038 57.5854 58.0257 61.8616 54.8612Z" fill="white"/>
<path d="M18.4253 64.4076C19.8645 61.5656 21.2547 58.8028 22.7158 55.8991C23.0733 56.2355 23.4452 56.4946 23.7008 56.8397C27.4279 61.8708 31.1548 66.9024 34.8253 71.9746C35.1133 72.3725 35.2245 73.1968 35.0105 73.6139C32.7062 78.1042 30.3298 82.5578 27.9517 87.0099C26.9453 88.894 26.6974 89.042 24.6527 88.4967C19.4709 87.115 14.3059 85.6704 9.13718 84.2403C8.83248 84.156 8.55373 83.9779 8.23679 83.8314C11.6367 77.345 15.0065 70.9158 18.4253 64.4076Z" fill="white"/>
<path d="M84.1196 76.3968C85.4277 78.9006 86.6854 81.3253 88.0227 83.9035C86.2247 84.4318 84.4394 84.9765 82.6425 85.4802C78.7122 86.5818 74.7673 87.6326 70.8492 88.7754C70.0014 89.0227 69.5563 88.8659 69.1595 88.1071C66.9158 83.8166 64.5919 79.5672 62.4001 75.2506C60.7491 71.999 60.7121 73.0913 62.9319 70.1093C66.2735 65.6203 69.5746 61.1012 72.896 56.5971C73.0415 56.3999 73.2171 56.2249 73.5156 55.8825C77.0675 62.7601 80.5684 69.539 84.1196 76.3968Z" fill="white"/>
</svg>
