<svg width="96" height="96" viewBox="0 0 96 96" fill="none" xmlns="http://www.w3.org/2000/svg">
<path d="M46.0452 2.57463C44.9227 2.88277 42.1012 3.64895 39.7879 4.27355C37.4746 4.89815 34.4408 5.7143 33.0604 6.08906L30.5347 6.77196V8.24602V9.72841L30.785 9.77005C30.9139 9.79503 31.3387 9.85333 31.7103 9.9033C33.9781 10.2114 36.2914 11.344 37.8311 12.9014L38.3468 13.4177V26.7509C38.3468 34.0879 38.3696 42.899 38.3999 46.3384C38.4227 49.7696 38.4227 52.7177 38.3999 52.8759L38.3468 53.1674L36.5417 53.8337C31.0808 55.849 24.8918 58.7555 20.2045 61.5038C15.0697 64.5102 11.3381 67.3084 8.60005 70.1899C5.52071 73.4295 3.84451 77.7434 4.01137 81.9741C4.32234 89.4859 9.82876 94.1163 17.4209 93.2585C20.8264 92.8754 24.3457 91.3264 27.2657 88.928C28.2062 88.1535 30.2086 86.0048 30.474 85.4885C30.5271 85.3886 30.3375 85.4635 29.8749 85.7133C28.3428 86.5545 26.2494 87.2624 24.7552 87.4372C23.9361 87.5289 22.6543 87.4456 21.6987 87.229C18.8696 86.5878 16.6321 84.5141 15.7751 81.7409C15.1531 79.7421 15.2442 77.1521 16.0102 75.0285C16.9583 72.3802 18.9985 69.8484 22.0779 67.4833C24.5201 65.6178 28.5703 63.3026 32.848 61.3539C34.3953 60.646 37.8842 59.1469 38.1724 59.072L38.3696 59.0137L38.3241 60.1296C38.2634 61.5121 38.3772 65.0515 38.5365 66.7837C38.8398 70.09 39.4314 73.213 40.2885 76.0112C43.5878 86.771 51.0055 92.9587 61.7681 93.9414C62.974 94.0497 65.9244 93.9997 67.0546 93.8582C73.9641 92.9504 79.956 89.8524 84.4536 84.8556C89.2092 79.5756 91.6362 73.0298 91.97 64.6101C92.1823 59.047 91.2722 54.1501 89.1257 49.3365C85.6292 41.5082 79.4326 36.0866 72.5155 34.8124C72.0149 34.7208 71.3702 34.6042 71.0744 34.5543C70.7862 34.496 69.7395 34.4377 68.7459 34.4127C66.8422 34.3627 65.8562 34.4543 64.2862 34.8208C59.3562 35.9534 54.9875 39.2013 53.2961 43.0072C52.9244 43.8234 52.6362 44.7228 52.7424 44.7061C52.7728 44.7061 52.9472 44.4979 53.1368 44.2481C53.3264 43.9982 53.8043 43.4736 54.1987 43.0822C57.3159 40.0091 61.8212 38.5184 66.2733 39.093C69.3451 39.4845 72.0907 40.7337 74.4495 42.8073C77.0586 45.0975 79.0989 48.8035 80.2973 53.4173C81.5487 58.2558 81.7687 64.5435 80.8889 70.3231C79.7663 77.7018 76.7477 83.19 72.25 86.0132C67.8813 88.7697 61.8819 88.7531 57.6648 85.9632C52.6211 82.6403 49.1625 75.2367 48.3206 65.9926C48.1917 64.6101 48.0931 60.5627 48.0475 54.6248C48.002 49.6447 48.0324 30.6234 48.0855 25.4351C48.1841 15.8911 48.2296 1.99167 48.1613 2C48.1234 2.00832 47.1753 2.25816 46.0452 2.57463Z" fill="white"/>
<path d="M22.6374 30.0326C22.5011 30.0488 21.9816 30.1058 21.4876 30.1547C19.6992 30.3338 17.4338 30.8059 15.7816 31.3432C10.3651 33.0933 7.00111 36.1541 6.15798 40.094C5.85991 41.4778 5.98765 42.8535 6.50716 43.8385C7.26512 45.2793 9.18985 46.1992 10.9187 45.9631C13.0904 45.6538 14.5978 44.2862 15.5176 41.7627C15.6624 41.372 16.0712 40.0207 16.4203 38.759C17.4679 35.0551 18.0385 33.8666 19.4777 32.4421C20.4486 31.4734 21.6665 30.7733 23.3187 30.2198L24 30H23.4464C23.1398 30.0081 22.7821 30.0244 22.6374 30.0326Z" fill="white"/>
</svg>
