<svg width="48" height="48" viewBox="0 0 48 48" fill="none" xmlns="http://www.w3.org/2000/svg">
<rect width="48" height="48" fill="black"/>
<path d="M23.0717 1.87947C22.5385 2.02968 21.1983 2.40316 20.0994 2.70763C19.0006 3.0121 17.5595 3.40994 16.9039 3.59262L15.7042 3.92551V4.64406V5.36667L15.823 5.38697C15.8843 5.39915 16.086 5.42756 16.2626 5.45192C17.3398 5.60213 18.4386 6.15423 19.17 6.91338L19.4149 7.16507V13.6645C19.4149 17.241 19.4257 21.5361 19.4402 23.2127C19.451 24.8852 19.451 26.3223 19.4402 26.3995L19.4149 26.5416L18.5575 26.8663C15.9635 27.8488 13.0237 29.2656 10.7973 30.6052C8.35824 32.0707 6.58571 33.4348 5.28513 34.8394C3.82244 36.4186 3.02624 38.5214 3.1055 40.5837C3.25321 44.2455 5.86877 46.5026 9.47508 46.0845C11.0927 45.8977 12.7643 45.1427 14.1514 43.9735C14.5981 43.596 15.5492 42.5486 15.6753 42.2969C15.7005 42.2482 15.6105 42.2847 15.3907 42.4065C14.663 42.8165 13.6686 43.1616 12.9589 43.2468C12.5698 43.2915 11.9609 43.2509 11.507 43.1453C10.1632 42.8327 9.1004 41.8219 8.69329 40.4701C8.39787 39.4958 8.4411 38.2332 8.80498 37.198C9.25531 35.9071 10.2244 34.6729 11.6871 33.52C12.8472 32.6107 14.7711 31.4821 16.803 30.5321C17.5379 30.1871 19.1952 29.4564 19.3321 29.4198L19.4257 29.3914L19.4041 29.9354C19.3753 30.6093 19.4293 32.3346 19.505 33.179C19.6491 34.7907 19.9301 36.313 20.3372 37.6771C21.9044 42.9221 25.4278 45.9383 30.5401 46.4174C31.1129 46.4702 32.5144 46.4458 33.0512 46.3768C36.3332 45.9343 39.1794 44.4241 41.3158 41.9883C43.5747 39.4146 44.7275 36.2237 44.886 32.1195C44.9869 29.4076 44.5546 27.0206 43.535 24.6741C41.8742 20.8581 38.9308 18.2153 35.6451 17.5942C35.4073 17.5495 35.1011 17.4927 34.9606 17.4683C34.8237 17.4399 34.3265 17.4115 33.8546 17.3993C32.9503 17.375 32.4819 17.4196 31.7362 17.5983C29.3944 18.1504 27.3193 19.7336 26.5159 21.5888C26.3393 21.9867 26.2024 22.4251 26.2529 22.417C26.2673 22.417 26.3501 22.3155 26.4402 22.1937C26.5303 22.0719 26.7572 21.8162 26.9446 21.6254C28.4253 20.1274 30.5653 19.4007 32.6801 19.6808C34.1392 19.8716 35.4434 20.4806 36.5638 21.4914C37.8031 22.6078 38.7723 24.4143 39.3415 26.6633C39.9359 29.022 40.0404 32.087 39.6225 34.9043C39.0893 38.5011 37.6554 41.1764 35.519 42.5526C33.4439 43.8964 30.5941 43.8882 28.591 42.5283C26.1952 40.9085 24.5524 37.2995 24.1525 32.7933C24.0912 32.1195 24.0444 30.1465 24.0228 27.252C24.0012 24.8243 24.0156 15.5522 24.0408 13.0231C24.0876 8.37078 24.1093 1.5953 24.0768 1.59936C24.0588 1.60342 23.6085 1.72521 23.0717 1.87947Z" fill="white"/>
<path d="M11.9526 15.2637C11.8878 15.2716 11.6411 15.2994 11.4064 15.3232C10.5569 15.4105 9.48086 15.6407 8.69606 15.9026C6.12324 16.7557 4.52533 18.2477 4.12485 20.1683C3.98326 20.8429 4.04394 21.5135 4.2907 21.9936C4.65074 22.696 5.56498 23.1443 6.38618 23.0293C7.41774 22.8785 8.13376 22.2118 8.57066 20.9817C8.63943 20.7913 8.83361 20.1326 8.99946 19.5175C9.49704 17.712 9.76808 17.1327 10.4517 16.4383C10.9129 15.9661 11.4914 15.6248 12.2762 15.355L12.5998 15.2478H12.3369C12.1912 15.2518 12.0213 15.2597 11.9526 15.2637Z" fill="white"/>
</svg>
