<svg width="48" height="48" viewBox="0 0 48 48" fill="none" xmlns="http://www.w3.org/2000/svg">
<path d="M0 24V48H24H48V24V-7.15256e-07H24H0V24ZM24 17.7C24 32 24.3 35.1 25.9 38.7C27.9 43.1 30.6 44.6 34.6 43.6C38.3 42.6 40.3 38.6 40.4 32C40.5 23.6 38 20.5 31.5 20.6C27.3 20.6 27 20.5 28.6 19.3C36.1 13.8 46 20.8 46 31.5C46 42.7 35.2 50.2 26 45.5C22.5 43.7 20.3 39.9 19.4 34.1C19 31.8 18.5 30 18.1 30C15.8 30.1 9.4 35 8.6 37.3C7.3 40.8 8.9 43.5 11.9 43.4C15 43.3 14.5 44.6 10.9 45.9C6.7 47.4 6.3 47.3 4 45C-0.6 40.4 3 34.3 12.9 29.6L19 26.6V16.2C19 6.7 18.8 5.8 17 5.3C15.9 5 15 4.4 15 4.1C15 3.5 20.2 1.6 23.3 1.1C23.7 1.1 24 8.5 24 17.7ZM9.7 16.8C8.7 17.8 8 19.4 8 20.4C8 22.5 5.2 23.6 3.7 22.1C2.2 20.6 3.8 18 7.1 16.3C10.5 14.5 11.6 14.7 9.7 16.8Z" fill="white"/>
</svg>
