<svg width="96" height="96" viewBox="0 0 96 96" fill="none" xmlns="http://www.w3.org/2000/svg">
<path d="M46.5215 6.51998C45.4931 6.79881 42.9081 7.49212 40.7886 8.05732C38.6692 8.62252 35.8896 9.36104 34.6249 9.70016L32.3109 10.3181V11.652V12.9934L32.5402 13.0311C32.6584 13.0537 33.0475 13.1064 33.388 13.1516C35.4657 13.4305 37.5852 14.4553 38.9958 15.8646L39.4683 16.3318V28.3969C39.4683 35.0361 39.4892 43.0091 39.517 46.1215C39.5378 49.2263 39.5378 51.894 39.517 52.0372L39.4683 52.3009L37.8145 52.9038C32.8112 54.7275 27.1409 57.3576 22.8464 59.8444C18.142 62.5649 14.7231 65.097 12.2145 67.7044C9.39326 70.6359 7.85754 74.5396 8.01042 78.3678C8.29533 85.1653 13.3403 89.3553 20.2962 88.5791C23.4163 88.2324 26.6406 86.8307 29.3159 84.6604C30.1776 83.9595 32.0121 82.0152 32.2553 81.548C32.304 81.4576 32.1302 81.5254 31.7064 81.7515C30.3027 82.5126 28.3848 83.1532 27.0158 83.3114C26.2653 83.3943 25.091 83.319 24.2154 83.123C21.6234 82.5428 19.5735 80.6663 18.7883 78.1568C18.2184 76.3482 18.3018 74.0045 19.0037 72.0828C19.8723 69.6864 21.7416 67.3955 24.5628 65.2553C26.8004 63.5672 30.5111 61.4722 34.4304 59.7088C35.8479 59.0682 39.0445 57.7118 39.3085 57.6439L39.4892 57.5912L39.4475 58.601C39.3919 59.852 39.4961 63.0548 39.6421 64.6222C39.92 67.614 40.462 70.44 41.2473 72.9721C44.2701 82.7085 51.0662 88.3078 60.9267 89.197C62.0316 89.295 64.7348 89.2498 65.7701 89.1216C72.1006 88.3002 77.5903 85.4969 81.7111 80.9753C86.0681 76.1975 88.2917 70.2742 88.5975 62.6554C88.792 57.6213 87.9582 53.1902 85.9916 48.8344C82.7881 41.7506 77.1108 36.8447 70.7734 35.6917C70.3148 35.6088 69.7241 35.5033 69.4531 35.4581C69.189 35.4053 68.2301 35.3526 67.3198 35.33C65.5756 35.2847 64.6722 35.3676 63.2338 35.6992C58.717 36.7241 54.7144 39.6631 53.1647 43.1071C52.8242 43.8456 52.5602 44.6595 52.6575 44.6444C52.6853 44.6444 52.8451 44.456 53.0188 44.2299C53.1925 44.0039 53.6303 43.5291 53.9917 43.1749C56.8477 40.3941 60.9754 39.0452 65.0544 39.5652C67.8687 39.9194 70.3843 41.0498 72.5454 42.9262C74.9358 44.9986 76.8051 48.3521 77.903 52.527C79.0496 56.9054 79.2511 62.5951 78.445 67.825C77.4166 74.5019 74.6509 79.4681 70.5302 82.0228C66.5276 84.5172 61.031 84.5021 57.1673 81.9776C52.5463 78.9707 49.3776 72.2712 48.6062 63.9063C48.4881 62.6554 48.3978 58.9929 48.3561 53.6197C48.3144 49.1132 48.3422 31.9011 48.3908 27.2062C48.4811 18.57 48.5228 5.99247 48.4603 6C48.4256 6.00754 47.5569 6.23362 46.5215 6.51998Z" fill="white"/>
<path d="M24.1459 32.489C24.0348 32.5041 23.6109 32.5568 23.2078 32.602C21.7485 32.7678 19.9001 33.2049 18.552 33.7023C14.1325 35.3225 11.3877 38.156 10.6997 41.8034C10.4565 43.0846 10.5607 44.3581 10.9846 45.27C11.6031 46.6038 13.1735 47.4554 14.5842 47.2369C16.3562 46.9505 17.5861 45.6845 18.3366 43.3483C18.4547 42.9866 18.7883 41.7356 19.0732 40.5675C19.9279 37.1387 20.3935 36.0384 21.5679 34.7196C22.3601 33.8229 23.3538 33.1748 24.7019 32.6623L25.2578 32.4589H24.8061C24.5559 32.4664 24.2641 32.4815 24.1459 32.489Z" fill="white"/>
</svg>
