<svg width="48" height="48" viewBox="0 0 48 48" fill="none" xmlns="http://www.w3.org/2000/svg">
<rect width="48" height="48" rx="5" fill="black"/>
<path d="M19.8643 12.7125C17.7746 16.9631 15.7185 21.1752 15.2803 22.0984L14.4882 23.7524L17.4543 25.9643C19.0891 27.176 20.5216 28.1761 20.6059 28.2146C20.707 28.2338 21.4316 26.9067 22.2237 25.2719C23.0158 23.637 23.6899 22.2907 23.7405 22.2907C23.7911 22.2907 24.4652 23.637 25.2573 25.2719C26.0494 26.9067 26.7403 28.253 26.8246 28.253C26.892 28.253 28.1897 27.3298 29.7233 26.1758C31.2401 25.0411 32.6052 24.0217 32.7568 23.9255C32.9759 23.7524 32.5378 22.7523 29.8076 17.1939C28.038 13.5973 25.9651 9.38519 25.2067 7.82729C24.4483 6.2694 23.7911 5 23.7405 5C23.6899 5 21.9541 8.46199 19.8643 12.7125Z" fill="white"/>
<path d="M11.2019 25.5027C11.7412 26.2335 12.2805 26.9452 12.4153 27.1375C12.6175 27.4068 12.5164 27.7145 11.5558 29.6378C10.966 30.8303 9.39863 34.023 8.06724 36.7157C6.75271 39.4083 5.52244 41.9087 5.33706 42.2356L5 42.8703H9.28066H13.5613L15.6511 38.6198C17.6229 34.6 17.7408 34.4077 18.0105 34.7346C18.1622 34.927 19.4936 36.6964 20.9598 38.6775C22.426 40.6777 23.6731 42.2933 23.7405 42.2933C23.8079 42.2933 25.173 40.5239 26.774 38.3505C28.7795 35.6386 29.7402 34.4846 29.8413 34.6385C29.9255 34.7731 30.8693 36.6772 31.9479 38.889L33.9197 42.8703H38.2004H42.481L42.144 42.2356C41.9586 41.9087 40.7283 39.4083 39.4138 36.7157C38.0824 34.023 36.5151 30.8303 35.9252 29.6378C34.9646 27.7145 34.8635 27.4068 35.0657 27.1375C35.2005 26.9452 35.7398 26.2335 36.2791 25.5027C36.8184 24.791 37.206 24.214 37.1218 24.214C37.0375 24.2333 36.06 24.9064 34.9477 25.7527C33.8354 26.5797 30.8525 28.7916 28.3245 30.6572L23.7405 34.0615L23.1001 33.5999C18.3476 30.0417 10.4267 24.214 10.3424 24.214C10.275 24.214 10.6626 24.791 11.2019 25.5027Z" fill="white"/>
</svg>
