<svg width="48" height="48" viewBox="0 0 48 48" fill="none" xmlns="http://www.w3.org/2000/svg">
<path d="M27.2752 8.592C29.5447 13.2738 31.788 17.9159 34.0544 22.5466C34.3221 23.0935 34.2698 23.4012 33.7495 23.7738C31.6071 25.3082 29.5022 26.8947 27.3822 28.4604C27.1998 28.5951 27.0083 28.7172 26.7193 28.9147C25.8955 27.3515 25.0879 25.8192 24.2345 24.1997C23.941 24.6677 23.6362 25.0946 23.3928 25.5539C22.8601 26.5594 22.3521 27.578 21.8479 28.5982C21.6654 28.9675 21.4628 28.9495 21.1663 28.729C18.8881 27.0346 16.6138 25.3345 14.3125 23.6719C13.901 23.3746 13.8549 23.1598 14.0698 22.7212C17.1276 16.4812 20.1673 10.2323 23.2153 3.98743C23.4947 3.41513 23.8006 2.85582 24.1841 2.11719C25.2595 4.36879 26.2577 6.45887 27.2752 8.592Z" fill="white"/>
<path d="M30.9308 27.4306C34.1234 25.061 37.2794 22.7177 40.4354 20.3744C40.4898 20.4204 40.5443 20.4663 40.5988 20.5123C35.1406 27.9479 29.6825 35.3835 24.1627 42.903C18.6168 35.4194 13.0984 27.9731 7.57999 20.5267C7.62761 20.4714 7.67523 20.4161 7.72285 20.3608C7.8987 20.4669 8.08506 20.5589 8.24884 20.6812C11.1241 22.8274 13.9952 24.9791 16.87 27.1259C19.0902 28.7839 21.3202 30.4291 23.5309 32.0997C23.9118 32.3876 24.1636 32.4718 24.6001 32.1385C26.6783 30.5519 28.7927 29.0128 30.9308 27.4306Z" fill="white"/>
<path d="M9.21267 32.2037C9.93227 30.7828 10.6274 29.4014 11.3579 27.9495C11.5367 28.1177 11.7226 28.2473 11.8504 28.4198C13.714 30.9354 15.5774 33.4512 17.4127 35.9873C17.5567 36.1862 17.6123 36.5984 17.5053 36.8069C16.3531 39.0521 15.1649 41.2789 13.9759 43.5049C13.4727 44.447 13.3487 44.521 12.3263 44.2483C9.73547 43.5575 7.15298 42.8352 4.5686 42.1201C4.41626 42.078 4.27688 41.9889 4.11841 41.9157C5.81834 38.6725 7.50326 35.4579 9.21267 32.2037Z" fill="white"/>
<path d="M42.0598 38.1984C42.7138 39.4503 43.3427 40.6626 44.0113 41.9517C43.1124 42.2159 42.2197 42.4882 41.3212 42.74C39.3561 43.2908 37.3837 43.8162 35.4246 44.3877C35.0007 44.5113 34.7781 44.4329 34.5798 44.0535C33.4579 41.9083 32.296 39.7836 31.2001 37.6253C30.3746 35.9995 30.356 36.5456 31.4659 35.0546C33.1367 32.8101 34.7873 30.5506 36.448 28.2985C36.5207 28.1999 36.6085 28.1124 36.7578 27.9412C38.5337 31.38 40.2842 34.7694 42.0598 38.1984Z" fill="white"/>
</svg>
