<svg width="96" height="96" viewBox="0 0 96 96" fill="none" xmlns="http://www.w3.org/2000/svg">
<path d="M40.3687 25.1662C36.1509 33.7451 32.0011 42.2464 31.1168 44.1097L29.5181 47.4481L35.5046 51.9122C38.804 54.3578 41.6952 56.3763 41.8653 56.454C42.0694 56.4928 43.532 53.8143 45.1307 50.5147C46.7294 47.2152 48.0899 44.4979 48.192 44.4979C48.294 44.4979 49.6546 47.2152 51.2533 50.5147C52.852 53.8143 54.2465 56.5316 54.4166 56.5316C54.5527 56.5316 57.1718 54.6683 60.2671 52.3392C63.3284 50.0489 66.0835 47.9915 66.3897 47.7974C66.8319 47.4481 65.9475 45.4295 60.4372 34.211C56.8657 26.9519 52.6819 18.4506 51.1512 15.3063C49.6206 12.162 48.294 9.6 48.192 9.6C48.0899 9.6 44.5865 16.5873 40.3687 25.1662Z" fill="white"/>
<path d="M22.8853 50.9806C23.9738 52.4557 25.0622 53.892 25.3343 54.2801C25.7425 54.8236 25.5384 55.4447 23.5996 59.3266C22.4091 61.7333 19.2458 68.1772 16.5586 73.6118C13.9055 79.0464 11.4224 84.0928 11.0483 84.7527L10.368 86.0337H19.0077H27.6473L31.8651 77.4548C35.8448 69.3417 36.0829 68.9536 36.6271 69.6135C36.9332 70.0017 39.6204 73.573 42.5796 77.5713C45.5389 81.6084 48.0559 84.8692 48.192 84.8692C48.3281 84.8692 51.0832 81.2979 54.3146 76.9114C58.3623 71.4379 60.3011 69.1088 60.5052 69.4194C60.6753 69.6911 62.5801 73.5341 64.757 77.9983L68.7367 86.0337H77.3763H86.016L85.3357 84.7527C84.9616 84.0928 82.4785 79.0464 79.8254 73.6118C77.1382 68.1772 73.9749 61.7333 72.7844 59.3266C70.8456 55.4447 70.6415 54.8236 71.0497 54.2801C71.3218 53.892 72.4102 52.4557 73.4987 50.9806C74.5872 49.5443 75.3695 48.3797 75.1994 48.3797C75.0293 48.4185 73.0565 49.7772 70.8116 51.4852C68.5666 53.1544 62.5461 57.6185 57.4439 61.3839L48.192 68.2548L46.8994 67.3232C37.3074 60.1417 21.3206 48.3797 21.1506 48.3797C21.0145 48.3797 21.7968 49.5443 22.8853 50.9806Z" fill="white"/>
</svg>
